<svg height="512pt" viewBox="0 0 512 512" width="512pt" xmlns="http://www.w3.org/2000/svg"><path d="m98.757812 354.464844c38.574219 0 69.957032-31.386719 69.957032-69.960938 0-38.574218-31.382813-69.960937-69.957032-69.960937-38.578124 0-69.960937 31.386719-69.960937 69.960937 0 38.574219 31.382813 69.960938 69.960937 69.960938zm0-99.945313c16.53125 0 29.980469 13.453125 29.980469 29.984375s-13.449219 29.984375-29.980469 29.984375c-16.535156 0-29.984374-13.453125-29.984374-29.984375s13.449218-29.984375 29.984374-29.984375zm0 0"/><path d="m98.757812 373.175781c-54.457031 0-98.757812 44.304688-98.757812 98.757813v19.785156c0 11.039062 8.949219 19.988281 19.988281 19.988281h157.535157c11.042968 0 19.988281-8.949219 19.988281-19.988281v-19.785156c0-54.453125-44.300781-98.757813-98.753907-98.757813zm-58.78125 98.554688c.113282-32.316407 26.4375-58.574219 58.78125-58.574219 32.339844 0 58.664063 26.257812 58.777344 58.574219zm0 0"/><path d="m492.011719 0h-235.863281c-11.042969 0-19.988282 8.949219-19.988282 19.988281v150.613281l-54.636718 73.304688c-9.800782 13.152344-.402344 31.933594 16.027343 31.933594h38.609375v215.878906c0 11.039062 8.945313 19.988281 19.988282 19.988281h235.863281c11.039062 0 19.988281-8.949219 19.988281-19.988281v-471.730469c0-11.039062-8.949219-19.988281-19.988281-19.988281zm-19.988281 471.730469h-195.886719v-215.878907c0-11.039062-8.949219-19.988281-19.988281-19.988281h-18.769532l34.792969-46.6875c2.574219-3.453125 3.964844-7.640625 3.964844-11.945312v-137.253907h195.886719zm0 0"/><path d="m374.078125 228.410156c46.820313 0 84.953125-38.09375 84.953125-84.949218 0-46.84375-38.109375-84.953126-84.953125-84.953126-46.839844 0-84.949219 38.109376-84.949219 84.953126 0 46.839843 38.109375 84.949218 84.949219 84.949218zm44.976563-84.949218c0 5.015624-.839844 9.835937-2.359376 14.34375l-22.628906-22.625v-31.992188c14.792969 7.371094 24.988282 22.648438 24.988282 40.273438zm-64.964844-40.273438v40.273438c0 5.300781 2.105468 10.382812 5.855468 14.132812l28.480469 28.480469c-4.511719 1.523437-9.332031 2.359375-14.347656 2.359375-24.796875 0-44.972656-20.175782-44.972656-44.972656 0-17.625 10.191406-32.902344 24.984375-40.273438zm0 0"/><path d="m314.472656 314.488281c-11.039062 0-19.988281 8.945313-19.988281 19.988281v78.621094c0 11.039063 8.949219 19.988282 19.988281 19.988282 11.039063 0 19.988282-8.949219 19.988282-19.988282v-78.621094c0-11.042968-8.949219-19.988281-19.988282-19.988281zm0 0"/><path d="m374.078125 275.175781c-11.039063 0-19.988281 8.949219-19.988281 19.988281v117.933594c0 11.039063 8.949218 19.988282 19.988281 19.988282s19.988281-8.949219 19.988281-19.988282v-117.933594c0-11.039062-8.949218-19.988281-19.988281-19.988281zm0 0"/><path d="m433.070312 353.796875c-11.039062 0-19.988281 8.949219-19.988281 19.988281v39.3125c0 11.039063 8.949219 19.988282 19.988281 19.988282 11.039063 0 19.988282-8.949219 19.988282-19.988282v-39.3125c0-11.039062-8.949219-19.988281-19.988282-19.988281zm0 0"/></svg>