<svg id="Capa_1" enable-background="new 0 0 512 512" height="512" viewBox="0 0 512 512" width="512" xmlns="http://www.w3.org/2000/svg"><path d="m421 106c0-24.813-20.187-45-45-45s-45 20.187-45 45 20.187 45 45 45 45-20.187 45-45zm-45 15c-8.271 0-15-6.729-15-15s6.729-15 15-15 15 6.729 15 15-6.729 15-15 15z"/><path d="m76 301c15.264 0 29.47-4.594 41.33-12.458l54.608 54.608c-13.144 17.535-20.938 39.299-20.938 62.85 0 58.448 47.103 106 105 106s105-47.552 105-106c0-37.365-19.622-70.229-49.1-88.843l23.315-52.459c12.874 4.089 26.575 6.302 40.785 6.302 74.99 0 136-60.561 136-135 0-74.64-61.379-136-136-136-74.439 0-135 61.009-135 136 0 8.255.748 16.337 2.174 24.187l-101.115 30.335c-12.677-23.508-37.53-39.522-66.059-39.522-41.457 0-76 33.534-76 75 0 41.457 34.534 75 76 75zm255 105c0 41.906-33.645 76-75 76s-75-34.094-75-76c0-41.355 33.645-75 75-75s75 33.645 75 75zm30-166.076v-43.924c0-8.271 6.729-15 15-15s15 6.729 15 15v43.944c-4.902.691-9.908 1.056-15 1.056-5.093 0-10.099-.372-15-1.076zm15-209.924c58.448 0 106 47.551 106 106 0 41.968-24.99 78.258-61 95.054v-35.054c0-24.813-20.187-45-45-45s-45 20.187-45 45v34.855c-35.443-16.882-60-53.053-60-94.855 0-58.449 47.103-106 105-106zm-124.19 158.918c11.414 26.686 31.188 48.971 56.009 63.557l-23.315 52.459c-9.068-2.561-18.628-3.934-28.504-3.934-23.551 0-45.314 7.794-62.849 20.938l-54.608-54.608c7.863-11.86 12.457-26.066 12.457-41.33 0-2.274-.119-4.521-.318-6.744zm-175.81-7.918c24.813 0 45 20.187 45 45s-20.187 45-45 45c-24.935 0-46-20.607-46-45s21.065-45 46-45z"/></svg>