<svg id="Capa_1" enable-background="new 0 0 512 512" height="512" viewBox="0 0 512 512" width="512" xmlns="http://www.w3.org/2000/svg"><path d="m211 180h30v-60h30v-30h-90v30h30z"/><path d="m181 210h150v30h-150z"/><path d="m271 150h60v30h-60z"/><path d="m181 270h150v30h-150z"/><path d="m316 0c-6.812 0-188.206 0-195 0v60h-121v330h181v62c0 16.542-13.458 30-30 30v30h210v-30c-16.542 0-30-13.458-30-30v-62h181v-330l-122.509.01c-6.969-34.192-37.272-60.01-73.491-60.01zm15 32.57c12.768 4.527 22.903 14.662 27.43 27.43h-27.43zm-301 57.43h91v270h-91zm279.052 392h-106.104c5.119-8.83 8.052-19.08 8.052-30v-62h90v62c0 10.92 2.933 21.17 8.052 30zm-158.052-122v-330h150v60h60v270zm331 0h-91v-270.01h91z"/></svg>