<svg id="Capa_1" enable-background="new 0 0 512 512" height="512" viewBox="0 0 512 512" width="512" xmlns="http://www.w3.org/2000/svg"><path d="m241 89.885h30v30h-30z"/><path d="m262.708 3.469-6.708-3.354-6.708 3.354c-23.981 11.99-44.284 31.285-56.43 56.416h-192.862v330h181v62c0 16.542-13.458 30-30 30v30h210v-30c-16.542 0-30-13.458-30-30v-62h181v-330l-192.862.01c-12.143-25.125-32.443-44.433-56.43-56.426zm68.292 178.995c12.765 4.527 22.903 14.655 27.43 27.421h-27.43zm-120-70.497c0-32.462 16.677-61.112 45-77.997 28.323 16.886 45 45.535 45 77.997v127.918h-90zm-30 97.918h-27.43c4.526-12.766 14.664-22.894 27.43-27.421zm-151-120.01h153.037c-1.341 7.24-2.037 14.627-2.037 22.092v39.427c-34.192 6.968-60 37.271-60 73.491v45h30v-30h30v30h30v15c0 8.271-6.729 15-15 15h-30c-24.813 0-45 20.187-45 45 0 5.258.915 10.305 2.58 15h-93.58zm279.052 392.01h-106.104c5.119-8.83 8.052-19.08 8.052-30v-62h90v62c0 10.921 2.933 21.17 8.052 30zm-143.052-122c-8.271 0-15-6.729-15-15s6.729-15 15-15h30c24.813 0 45-20.187 45-45v-15h30v15c0 24.813 20.187 45 45 45h30c8.271 0 15 6.729 15 15s-6.729 15-15 15zm316-270.01v270.01h-93.58c1.665-4.695 2.58-9.742 2.58-15 0-24.813-20.187-45-45-45h-30c-8.271 0-15-6.729-15-15v-15h30v-30h30v30h30c0-14.05 0-30.905 0-45 0-36.219-25.808-66.522-60-73.491v-39.427c0-7.465-.695-14.852-2.037-22.092z"/></svg>