<svg id="Capa_1" enable-background="new 0 0 512 512" height="512" viewBox="0 0 512 512" width="512" xmlns="http://www.w3.org/2000/svg"><path d="m0 512h512v-392h-512zm482-362v332h-452v-30h422v-272c-95.759 0-382.293 0-422 0v-30zm-362 272h-90v-212h90zm30 0v-212h272v212z"/><path d="m60 301h30v30h-30z"/><path d="m60 361h30v30h-30z"/><path d="m60 241h30v30h-30z"/><path d="m447.606 55.607 10.608-10.607-10.607-10.607c-22.179-22.179-51.669-34.393-83.034-34.393h-274.573v90h274.573c31.365 0 60.854-12.214 83.033-34.393zm-34.02-10.607c-14.351 9.755-31.279 15-49.013 15h-184.573v-30h184.573c17.734 0 34.662 5.245 49.013 15zm-293.586-15h30v30h-30z"/></svg>