<svg height="512pt" viewBox="0 0 512 512" width="512pt" xmlns="http://www.w3.org/2000/svg" style="fill: #EDA69C"><path d="m306.136719 409.78125c9.359375-11.261719 14.992187-25.722656 14.992187-41.476562 0-35.847657-29.164062-65.011719-65.011718-65.011719-35.847657 0-65.011719 29.164062-65.011719 65.011719 0 15.671874 5.574219 30.0625 14.84375 41.304687-42.371094 30.894531-34.058594 77.609375-35.046875 82.386719 0 11.046875 8.957031 20.003906 20.003906 20.003906h130.027344c11.046875 0 20.003906-8.957031 20.003906-20.003906-.960938-4.671875 7.308594-51.28125-34.800781-82.214844zm-50.019531-66.480469c13.789062 0 25.003906 11.214844 25.003906 25.003907 0 13.789062-11.214844 25.003906-25.003906 25.003906-13.785157 0-25.003907-11.214844-25.003907-25.003906 0-13.789063 11.21875-25.003907 25.003907-25.003907zm-44.761719 128.691407c3.085937-21.832032 21.894531-38.675782 44.566406-38.675782 22.667969 0 41.476563 16.84375 44.5625 38.675782zm0 0"/><path d="m477.109375 331.101562c9.359375-11.265624 14.992187-25.726562 14.992187-41.480468 0-35.847656-29.164062-65.011719-65.011718-65.011719s-65.011719 29.164063-65.011719 65.011719c0 15.671875 5.574219 30.066406 14.839844 41.304687-42.371094 30.894531-34.058594 77.609375-35.042969 82.386719 0 11.050781 8.953125 20.003906 20.003906 20.003906h130.023438c11.050781 0 20.003906-8.953125 20.003906-20.003906-.957031-4.671875 7.308594-51.277344-34.796875-82.210938zm-50.019531-66.484374c13.789062 0 25.003906 11.21875 25.003906 25.003906 0 13.789062-11.214844 25.007812-25.003906 25.007812-13.785156 0-25.003906-11.21875-25.003906-25.007812 0-13.785156 11.21875-25.003906 25.003906-25.003906zm-44.761719 128.691406c3.085937-21.828125 21.894531-38.671875 44.5625-38.671875s41.476563 16.84375 44.566406 38.671875zm0 0"/><path d="m135.304688 331.101562c9.355468-11.265624 14.992187-25.726562 14.992187-41.480468 0-35.847656-29.164063-65.011719-65.011719-65.011719s-65.015625 29.164063-65.015625 65.011719c0 15.671875 5.574219 30.066406 14.84375 41.304687-42.371093 30.894531-34.058593 77.609375-35.0468748 82.386719 0 11.050781 8.9570318 20.003906 20.0039058 20.003906h130.027344c11.046875 0 20.003906-8.953125 20.003906-20.003906-.960937-4.671875 7.308594-51.277344-34.796874-82.210938zm-50.019532-66.484374c13.785156 0 25.003906 11.21875 25.003906 25.003906 0 13.789062-11.21875 25.007812-25.003906 25.007812-13.789062 0-25.007812-11.21875-25.007812-25.007812 0-13.785156 11.21875-25.003906 25.007812-25.003906zm-44.765625 128.691406c3.089844-21.828125 21.898438-38.671875 44.566407-38.671875 22.667968 0 41.476562 16.84375 44.5625 38.671875zm0 0"/><path d="m285.925781 208.707031h130.027344c11.046875 0 20.003906-8.957031 20.003906-20.003906-.960937-4.671875 7.304688-51.28125-34.800781-82.210937 9.355469-11.265626 14.992188-25.726563 14.992188-41.480469 0-35.847657-29.164063-65.011719-65.011719-65.011719-35.847657 0-65.011719 29.164062-65.011719 65.011719 0 15.671875 5.574219 30.066406 14.84375 41.304687-42.371094 30.894532-34.058594 77.609375-35.046875 82.386719 0 11.046875 8.957031 20.003906 20.003906 20.003906zm20.449219-40.007812c3.085938-21.832031 21.894531-38.675781 44.5625-38.675781s41.476562 16.84375 44.566406 38.675781zm44.761719-128.691407c13.789062 0 25.003906 11.214844 25.003906 25.003907 0 13.789062-11.214844 25.003906-25.003906 25.003906-13.789063 0-25.003907-11.214844-25.003907-25.003906 0-13.789063 11.214844-25.003907 25.003907-25.003907zm0 0"/><path d="m95.890625 208.707031h130.023437c11.046876 0 20.003907-8.957031 20.003907-20.003906-.960938-4.671875 7.308593-51.28125-34.796875-82.210937 9.355468-11.265626 14.992187-25.726563 14.992187-41.480469 0-35.847657-29.164062-65.011719-65.015625-65.011719-35.847656 0-65.011718 29.164062-65.011718 65.011719 0 15.671875 5.574218 30.066406 14.84375 41.304687-42.371094 30.894532-34.058594 77.609375-35.042969 82.386719 0 11.046875 8.953125 20.003906 20.003906 20.003906zm20.445313-40.007812c3.089843-21.832031 21.898437-38.675781 44.566406-38.675781 22.667968 0 41.476562 16.84375 44.5625 38.675781zm44.761718-128.691407c13.789063 0 25.007813 11.214844 25.007813 25.003907 0 13.789062-11.21875 25.003906-25.007813 25.003906-13.785156 0-25.003906-11.214844-25.003906-25.003906 0-13.789063 11.21875-25.003907 25.003906-25.003907zm0 0"/></svg>