<?xml version="1.0" encoding="UTF-8"?>
<svg width="297.5" height="292.5" version="1.1" viewBox="0 0 297.5 292.5" xml:space="preserve" xmlns="http://www.w3.org/2000/svg" xmlns:cc="http://creativecommons.org/ns#" xmlns:dc="http://purl.org/dc/elements/1.1/" xmlns:rdf="http://www.w3.org/1999/02/22-rdf-syntax-ns#" xmlns:xlink="http://www.w3.org/1999/xlink"><metadata><rdf:RDF><cc:Work rdf:about=""><dc:format>image/svg+xml</dc:format><dc:type rdf:resource="http://purl.org/dc/dcmitype/StillImage"/><dc:title/></cc:Work></rdf:RDF></metadata><defs><clipPath id="clipPath50"><use width="100%" height="100%" xlink:href="#g46"/></clipPath></defs>
















<g transform="translate(-103.56 -72.276)"><g transform="translate(97.737 -105)">
	
	
<g clip-path="url(#clipPath50)"><g id="g46"><path d="m273.68 177.28h-238.21c-16.354 0-29.648 13.295-29.648 29.655v161.66c0 16.347 13.294 29.641 29.648 29.641h79.839v39.118h-12.592c-8.791 0-15.918 7.128-15.918 15.934 0 8.791 7.127 15.904 15.918 15.904h103.71c8.792 0 15.918-7.113 15.918-15.904 0-8.806-7.127-15.934-15.918-15.934h-12.608v-39.118h79.863c16.338 0 29.64-13.294 29.64-29.641v-161.66c0-16.361-13.302-29.656-29.64-29.656zm-212.23 166.95v-116.04h187.72v116.04z" fill="#020202"/></g></g></g><g><path d="m362.03 343.47a21.22 21.22 0 0 1-21.22 21.22 21.22 21.22 0 0 1-21.22-21.22 21.22 21.22 0 0 1 21.22-21.22 21.22 21.22 0 0 1 21.22 21.22z"/><path d="m185.36 343.47a21.22 21.22 0 0 1-21.22 21.22 21.22 21.22 0 0 1-21.22-21.22 21.22 21.22 0 0 1 21.22-21.22 21.22 21.22 0 0 1 21.22 21.22z"/><path d="m164.4 322.25h175.59v42.524h-175.59z"/></g></g></svg>
